<?xml version="1.0" standalone="no"?>
<!DOCTYPE svg PUBLIC "-//W3C//DTD SVG 20010904//EN"
 "http://www.w3.org/TR/2001/REC-SVG-20010904/DTD/svg10.dtd">
<svg version="1.0" xmlns="http://www.w3.org/2000/svg"
 width="176.000000pt" height="185.000000pt" viewBox="0 0 176.000000 185.000000"
 preserveAspectRatio="xMidYMid meet">
<metadata>
Created by potrace 1.16, written by Peter Selinger 2001-2019
</metadata>
<g transform="translate(0.000000,185.000000) scale(0.100000,-0.100000)"
fill="#000000" stroke="none">
<path d="M710 1020 l-125 -59 -3 -61 c-2 -33 -1 -60 2 -60 2 0 63 23 135 50
l131 50 121 -45 c66 -25 127 -45 135 -45 12 0 14 12 12 55 l-3 56 -128 59
c-71 33 -134 60 -140 60 -7 -1 -68 -28 -137 -60z"/>
<path d="M712 842 c-123 -41 -156 -62 -119 -75 10 -3 10 -9 0 -26 -8 -12 -13
-55 -13 -101 l0 -81 53 5 c50 5 49 5 -13 -8 -101 -20 -150 -36 -215 -68 -98
-48 -135 -94 -135 -167 0 -33 7 -49 37 -82 68 -75 176 -122 356 -154 61 -11
110 -26 131 -40 l33 -22 -41 142 c-35 121 -46 147 -74 173 -36 34 -38 26 21
155 l36 77 -42 2 -42 1 45 6 45 6 35 82 c19 46 37 83 40 83 3 0 22 -37 41 -82
l35 -83 64 -7 c36 -4 80 -10 98 -13 l32 -6 0 84 c0 51 -5 88 -12 95 -9 9 -9
15 0 24 31 31 20 36 -208 107 l-55 18 -133 -45z"/>
<path d="M391 846 c-7 -16 -12 -83 -12 -148 -1 -94 -4 -118 -15 -118 -8 0 -14
8 -14 18 0 9 -5 24 -10 32 -7 10 -10 -10 -10 -66 l0 -82 102 34 c56 19 108 34
116 34 22 0 9 128 -16 152 -18 18 -19 18 -36 -1 -10 -11 -19 -31 -20 -45 -1
-18 -7 -26 -19 -26 -10 0 -21 -10 -26 -22 -6 -15 -9 20 -10 98 0 67 -5 132
-10 145 l-9 24 -11 -29z"/>
<path d="M1282 840 c-7 -18 -12 -75 -12 -126 0 -87 -1 -92 -20 -87 -12 3 -20
14 -20 27 0 13 -10 32 -23 44 l-23 22 -22 -23 c-18 -19 -22 -35 -22 -85 0 -52
3 -62 18 -62 9 0 61 -15 115 -34 l97 -33 0 80 c0 69 -2 78 -15 67 -8 -7 -15
-21 -15 -31 0 -11 -4 -19 -10 -19 -6 0 -11 30 -12 68 -3 128 -7 177 -16 201
-9 25 -9 24 -20 -9z"/>
<path d="M161 701 c-13 -24 -29 -291 -17 -291 4 0 20 7 36 15 29 15 30 18 30
90 0 41 -4 75 -9 75 -5 0 -9 19 -9 43 -1 23 -5 53 -10 67 l-9 24 -12 -23z"/>
<path d="M1510 671 c-7 -29 -10 -55 -6 -58 3 -3 0 -15 -6 -26 -6 -11 -12 -48
-14 -82 l-4 -61 36 -17 c19 -9 36 -17 37 -17 8 0 7 179 0 183 -5 3 -8 23 -7
44 1 21 -4 49 -11 62 -12 23 -13 22 -25 -28z"/>
<path d="M940 563 c0 -6 18 -49 40 -97 43 -93 43 -109 -2 -140 -16 -11 -33
-54 -64 -153 -23 -76 -40 -140 -39 -141 2 -2 16 6 32 17 17 13 56 25 103 31
219 31 392 120 416 215 25 100 -82 197 -270 245 -92 23 -216 36 -216 23z"/>
<path d="M794 446 c-40 -18 -49 -41 -25 -65 47 -47 171 -30 171 24 0 20 -8 29
-35 41 -42 17 -71 17 -111 0z"/>
</g>
</svg>
